<?xml version="1.0" ?><svg viewBox="0 0 512 512" xmlns="http://www.w3.org/2000/svg"><g id="Alocasia_Frydek"><path d="M344.2181,198.8726a35.3126,35.3126,0,0,0-19.0762-14.7579,15.8815,15.8815,0,0,0-20.4863,17.8272l3.6679,21.2651a1.9093,1.9093,0,0,1-3.45,1.4136l-12.3028-17.729a15.7848,15.7848,0,0,0-7.592-5.87,4.4318,4.4318,0,0,0,.091-.5657c2.2958-36.374.0479-63.0288-1.7291-76.8781L295.69,115.394c.0507-.0341.1025-.0693.1523-.1059a64.7279,64.7279,0,0,0,21.876-27.7227,32.551,32.551,0,0,0,.9521-22.2085,14.86,14.86,0,0,0-24.6875-6.0161L280.11,73.2432a1.3334,1.3334,0,0,1-2.1973-1.397l6.708-18.46a14.8592,14.8592,0,0,0-15.917-19.8056A32.5451,32.5451,0,0,0,248.9944,43.86a64.722,64.722,0,0,0-15.831,31.5664c-.0117.061-.0225.122-.0313.1836l-10.4853,70.6455a8.7445,8.7445,0,0,0,13.5088,8.5918l38.7523-25.6811a415.66,415.66,0,0,1,1.1793,70.7231,4.44,4.44,0,0,0,.0208.55,15.74,15.74,0,0,0-10.6438,8.1176,35.3157,35.3157,0,0,0-3.2432,23.9,70.6666,70.6666,0,0,0,18.1582,34.0147c.043.0449.0869.0884.1318.1313l3.2349,3.093a397.2249,397.2249,0,0,0-2.0788,59.1209H245.843c.0289-10.7761-.2873-22.593-1.0663-35.5147-1.2791-21.2087-3.4257-38.8549-4.7273-48.3427l4.7868-5.9087c.04-.0484.0782-.0972.1153-.147a79.6933,79.6933,0,0,0,15.45-40.6318,39.5,39.5,0,0,0-6.9834-26.0625,17.4309,17.4309,0,0,0-29.7422,1.9536l-11.3145,21.7485a2.7814,2.7814,0,0,1-5.2461-1.4057l1.0762-24.4927a17.4316,17.4316,0,0,0-24.7822-16.562A39.51,39.51,0,0,0,164.3314,172.53a79.6739,79.6739,0,0,0-6.9346,42.9135c.0068.0616.0156.1231.0254.1846l13.9648,88.0464a9.7066,9.7066,0,0,0,7.1582,7.9487,10.0483,10.0483,0,0,0,2.6016.3457,9.6931,9.6931,0,0,0,7.5723-3.65l43.4929-53.6854a629.5468,629.5468,0,0,1,4.6081,74.1835H190.6927a4.5,4.5,0,0,0-4.4072,5.4082l23.91,116.05a35.5557,35.5557,0,0,0,34.6953,28.2759h43.9356a35.556,35.556,0,0,0,34.6963-28.2759l23.91-116.05a4.5,4.5,0,0,0-4.4072-5.4082H290.7982a416.8615,416.8615,0,0,1,1.2592-51.1741l45.17,43.1882a9.0892,9.0892,0,0,0,6.3056,2.563,9.2881,9.2881,0,0,0,3.5235-.7021,9.0776,9.0776,0,0,0,5.6992-8.2207l2.3818-78.4331c.002-.062.002-.124.002-.1861A70.67,70.67,0,0,0,344.2181,198.8726Zm-87.17-87.26a4.5009,4.5009,0,0,1-3.7706-6.9512l14.586-22.46a4.5,4.5,0,0,1,7.5488,4.9013l-14.5859,22.46A4.4968,4.4968,0,0,1,257.0482,111.6128ZM209.0784,212.89,200.8,243.7822a4.5,4.5,0,1,1-8.6933-2.33l8.2783-30.8921a4.5,4.5,0,0,1,8.6933,2.33Zm105.63,235.5689a26.5246,26.5246,0,0,1-25.8818,21.0923H244.8909A26.5235,26.5235,0,0,1,219.01,448.459l-17.5325-85.0954H332.2408Zm14.7432-180.45a4.4965,4.4965,0,0,1-6.0869-1.8565l-13.7862-25.8877a4.5,4.5,0,1,1,7.9434-4.23l13.7861,25.8877A4.5,4.5,0,0,1,329.4515,268.0093Z"/></g></svg>