<?xml version="1.0" ?><svg viewBox="0 0 512 512" xmlns="http://www.w3.org/2000/svg"><g id="Cactus"><path d="M375.3154,227.5029h-13.22a127.935,127.935,0,0,0-10.7874-47.5222c.0158-.0074.0321-.0122.0478-.02l15.8984-7.6338a4.5,4.5,0,1,0-3.8955-8.1132L347.46,171.8477c-.0324.0155-.0583.0387-.09.0549a114.9783,114.9783,0,0,0-30.1023-36.28l9.83-11.08a4.5,4.5,0,1,0-6.7325-5.9727l-10.44,11.7683a97.4042,97.4042,0,0,0-49.09-16.1583V100.93a4.5,4.5,0,0,0-9,0v13.25a97.4822,97.4822,0,0,0-49.716,16.5711L191.3125,118.57a4.5,4.5,0,1,0-6.7324,5.9727l10.2391,11.542a115.18,115.18,0,0,0-29.77,36.2885,4.4957,4.4957,0,0,0-.8323-.5253l-15.898-7.6338a4.5,4.5,0,1,0-3.8955,8.1132l15.898,7.6338a4.5013,4.5013,0,0,0,.9062.3192,127.9884,127.9884,0,0,0-10.6527,47.2228H136.6846a4.5,4.5,0,0,0,0,9h13.89a128.2182,128.2182,0,0,0,9.5545,44.6118h-2.9833A14.277,14.277,0,0,0,143.3037,298.89l23.1675,91.6568A33.1123,33.1123,0,0,0,198.606,415.57H314.0635a33.1118,33.1118,0,0,0,32.1343-25.0229l23.1679-91.6563a14.277,14.277,0,0,0-13.8418-17.7759h-2.9833a128.2159,128.2159,0,0,0,9.5545-44.6118h13.22a4.5,4.5,0,0,0,0-9ZM359.688,292.15a5.2424,5.2424,0,0,1,.9521,4.5352L342.804,367.2483H169.8651l-17.8358-70.5637a5.2767,5.2767,0,0,1,5.1162-6.57H355.5239A5.2439,5.2439,0,0,1,359.688,292.15Zm-63.7667-11.0352c1.3621-6.4055,2.48-13.2287,3.2937-20.45H285.1206a4.5,4.5,0,0,1,0-9h14.9337c.4722-6.3056.7255-12.8654.7255-19.6617,0-22.6649-2.7822-42.7381-7.3118-59.2858a4.4307,4.4307,0,0,1-.53.0534H276.5034a4.5,4.5,0,0,1,0-9h14.2325c-8.69-25.6249-21.8058-40.7046-34.4014-40.7046-18.5266,0-38.1813,32.616-43.2144,83.4473h13.7383a4.5,4.5,0,0,1,0,9H212.3978q-.4969,7.99-.5086,16.49a237.6368,237.6368,0,0,0,4.8542,49.1118h-9.1522a248.8016,248.8016,0,0,1-4.702-49.1118c0-66.1328,23.476-117.937,53.4453-117.937S309.78,165.87,309.78,232.0029a248.8016,248.8016,0,0,1-4.702,49.1118Z"/></g></svg>