<?xml version="1.0" ?><svg viewBox="0 0 512 512" xmlns="http://www.w3.org/2000/svg"><g id="Indoor_Plant"><path d="M194.1236,128.5391a4.5,4.5,0,1,0,6.3642-6.3643L190.2725,111.959a4.5,4.5,0,1,0-6.3643,6.3642Z"/><path d="M313.876,129.8569a4.4875,4.4875,0,0,0,3.1826-1.3183l10.2139-10.2158a4.5,4.5,0,1,0-6.3643-6.3633l-10.2138,10.2158a4.5,4.5,0,0,0,3.1816,7.6816Z"/><path d="M338.0176,188.1416h21.5781a4.5,4.5,0,0,0,0-9H338.0176a4.5,4.5,0,0,0,0,9Z"/><path d="M151.585,188.1416h21.5786a4.5,4.5,0,0,0,0-9H151.585a4.5,4.5,0,0,0,0,9Z"/><path d="M255.5908,105.7144a4.5,4.5,0,0,0,4.5-4.5V79.6362a4.5,4.5,0,1,0-9,0v21.5782A4.5,4.5,0,0,0,255.5908,105.7144Z"/><path d="M255.9878,332.4673c-.1329-.0118-.261-.04-.397-.04s-.2641.0282-.397.04a53.4262,53.4262,0,0,0-50.4472-36.04,2.5,2.5,0,0,0-2.5,2.5,53.4059,53.4059,0,0,0,48.8442,53.1406v30.7243a97.0679,97.0679,0,0,0-48.0405,15.26,4.5,4.5,0,1,0,4.8643,7.5723,88.4306,88.4306,0,0,1,95.352,0,4.5,4.5,0,1,0,4.8633-7.5723,97.0688,97.0688,0,0,0-48.0391-15.26V352.0682a53.4059,53.4059,0,0,0,48.8438-53.14,2.5,2.5,0,0,0-2.5-2.5A53.4256,53.4256,0,0,0,255.9878,332.4673Z"/><path d="M385.2508,284.6138l-79.0231-58.72a66.0072,66.0072,0,1,0-100.9643.3782l-78.5145,58.3419A12.5,12.5,0,1,0,141.66,304.68l6.3044-4.6846V432.3638a4.5,4.5,0,0,0,4.5,4.5H358.7168a4.5,4.5,0,0,0,4.5-4.5V299.3867l7.1238,5.2935a12.5,12.5,0,1,0,14.91-20.0664ZM198.5791,183.6416a57.0118,57.0118,0,1,1,100.4251,36.8845l-35.1391-26.111a13.8395,13.8395,0,0,0-15.73,0l-35.6394,26.4827A56.7453,56.7453,0,0,1,198.5791,183.6416ZM354.2168,427.8638H156.9644V293.3079L256,219.7171l98.217,72.982Z"/></g></svg>