<?xml version="1.0" ?><svg viewBox="0 0 512 512" xmlns="http://www.w3.org/2000/svg"><g id="Outdoor_Plant"><path d="M415.3345,422.53a169.7917,169.7917,0,0,0-87.3682-26.8069V342.26a91.7272,91.7272,0,0,0,87.75-91.5311v-.6314a1.5,1.5,0,0,0-1.5-1.5h-.6314a91.769,91.769,0,0,0-90.1186,75.0759,91.7276,91.7276,0,0,0-34.5267-56.23A81.6809,81.6809,0,1,0,242.207,294.205,91.7265,91.7265,0,0,0,318.9663,342.26v53.4632A169.7917,169.7917,0,0,0,231.5981,422.53l4.8648,7.5723a161.3773,161.3773,0,0,1,174.0073,0,4.5,4.5,0,1,0,4.8643-7.5723ZM227.3413,286.5857a72.7674,72.7674,0,1,1,54.1534-24.2836,91.0619,91.0619,0,0,0-48.1466-13.7047h-.6313a1.5,1.5,0,0,0-1.5,1.5v.6314a91.1156,91.1156,0,0,0,6.9721,35.044A72.91,72.91,0,0,1,227.3413,286.5857Z"/><path d="M147.0005,139.9509a4.5,4.5,0,0,0,6.3642-6.3642l-13.5234-13.524a4.5,4.5,0,0,0-6.3643,6.3643Z"/><path d="M304.5,141.2688a4.4872,4.4872,0,0,0,3.1821-1.3179l13.5235-13.5239a4.5,4.5,0,1,0-6.3643-6.3643l-13.5234,13.524a4.5,4.5,0,0,0,3.1821,7.6821Z"/><path d="M147.0005,287.9036,133.477,301.427a4.5,4.5,0,0,0,6.3643,6.3643l13.5234-13.5235a4.5,4.5,0,1,0-6.3642-6.3642Z"/><path d="M227.3408,109.3083a4.5,4.5,0,0,0,4.5-4.5V85.6833a4.5,4.5,0,1,0-9,0v19.125A4.5,4.5,0,0,0,227.3408,109.3083Z"/><path d="M231.8413,323.0457a4.5,4.5,0,0,0-9,0v19.1254a4.5,4.5,0,0,0,9,0Z"/><path d="M118.2226,209.427H99.0972a4.5,4.5,0,0,0,0,9h19.1254a4.5,4.5,0,0,0,0-9Z"/><path d="M336.46,218.427h19.1254a4.5,4.5,0,0,0,0-9H336.46a4.5,4.5,0,0,0,0,9Z"/></g></svg>